<svg xmlns="http://www.w3.org/2000/svg" xmlns:xlink="http://www.w3.org/1999/xlink" width="1024" height="1024" viewBox="0 0 270.933 270.933"><style><![CDATA[.B{font-size:10.583px}.C{font-family:Amiga Forever Pro}.D{font-weight:400}.E{font-family:Comic Sans MS}]]></style><defs><linearGradient id="A" gradientUnits="userSpaceOnUse"><stop offset="0" stop-color="#ff7878"/><stop offset="1" stop-color="#bafc87"/></linearGradient><linearGradient xlink:href="#A" id="B" x1="3.502" y1="21.821" x2="288.562" y2="20.267"/><linearGradient xlink:href="#A" id="C" x1="-13.431" y1="51.151" x2="271.628" y2="49.596"/><linearGradient xlink:href="#A" id="D" x1="-30.365" y1="80.48" x2="254.695" y2="78.925"/><linearGradient xlink:href="#A" id="E" x1="-47.298" y1="109.81" x2="237.762" y2="108.255"/><linearGradient xlink:href="#A" id="F" x1="-64.231" y1="139.139" x2="220.828" y2="137.584"/><linearGradient xlink:href="#A" id="G" x1="-81.164" y1="168.468" x2="203.895" y2="166.914"/><linearGradient xlink:href="#A" id="H" x1="-98.362" y1="198.256" x2="186.697" y2="196.701"/><linearGradient xlink:href="#A" id="I" x1="-115.296" y1="227.585" x2="169.764" y2="226.031"/><linearGradient xlink:href="#A" id="J" x1="-132.229" y1="256.915" x2="152.83" y2="255.36"/><linearGradient xlink:href="#A" id="K" x1="-149.162" y1="286.244" x2="135.897" y2="284.689"/><linearGradient xlink:href="#A" id="L" x1="-166.095" y1="315.573" x2="118.964" y2="314.019"/><linearGradient xlink:href="#A" id="M" x1="-183.028" y1="344.903" x2="102.031" y2="343.348"/></defs><path d="M0 0h45.113v270.933H0z" fill="#b2dff4"/><path d="M45.113 0h45.113v270.933H45.113z" fill="#f9f8ed"/><path d="M90.226 0h45.113v270.933H90.226z" fill="#f7e1ea"/><path d="M135.34 0h45.113v270.933H135.34z" fill="#f8c8da"/><path d="M180.453 0h45.113v270.933h-45.113z" fill="#fddf9e"/><path d="M225.566 0h45.113v270.933h-45.113z" fill="#b4d5ac"/><text xml:space="preserve" x="3.017" y="23.277" transform="rotate(330)" fill="url(#B)" class="B C"><tspan x="3.017" y="23.277" font-weight="normal" class="E">irisctf{ponies_who_eat_rainbows_and_poop_butterflies}</tspan></text><text xml:space="preserve" x="-13.916" y="52.606" transform="rotate(330)" fill="url(#C)" class="B C"><tspan x="-13.916" y="52.606" font-weight="normal" class="E">irisctf{ponies_who_eat_rainbows_and_poop_butterflies}</tspan></text><text xml:space="preserve" x="-30.85" y="81.935" transform="rotate(330)" fill="url(#D)" class="B C"><tspan x="-30.85" y="81.935" font-weight="normal" class="E">irisctf{ponies_who_eat_rainbows_and_poop_butterflies}</tspan></text><text xml:space="preserve" x="-47.783" y="111.265" transform="rotate(330)" fill="url(#E)" class="B C"><tspan x="-47.783" y="111.265" font-weight="normal" class="E">irisctf{ponies_who_eat_rainbows_and_poop_butterflies}</tspan></text><text xml:space="preserve" x="-64.716" y="140.594" transform="rotate(330)" fill="url(#F)" class="B C"><tspan x="-64.716" y="140.594" font-weight="normal" class="E">irisctf{ponies_who_eat_rainbows_and_poop_butterflies}</tspan></text><text xml:space="preserve" x="-81.649" y="169.923" transform="rotate(330)" fill="url(#G)" class="B C"><tspan x="-81.649" y="169.923" font-weight="normal" class="E">irisctf{ponies_who_eat_rainbows_and_poop_butterflies}</tspan></text><text xml:space="preserve" x="-98.847" y="199.711" transform="rotate(330)" fill="url(#H)" class="B C"><tspan x="-98.847" y="199.711" font-weight="normal" class="E">irisctf{ponies_who_eat_rainbows_and_poop_butterflies}</tspan></text><text xml:space="preserve" x="-115.781" y="229.04" transform="rotate(330)" fill="url(#I)" class="B C"><tspan x="-115.781" y="229.04" font-weight="normal" class="E">irisctf{ponies_who_eat_rainbows_and_poop_butterflies}</tspan></text><text xml:space="preserve" x="-132.714" y="258.37" transform="rotate(330)" fill="url(#J)" class="B C"><tspan x="-132.714" y="258.37" font-weight="normal" class="E">irisctf{ponies_who_eat_rainbows_and_poop_butterflies}</tspan></text><text xml:space="preserve" x="-149.648" y="287.7" transform="rotate(330)" fill="url(#K)" class="B C"><tspan x="-149.648" y="287.7" font-weight="normal" class="E">irisctf{ponies_who_eat_rainbows_and_poop_butterflies}</tspan></text><text xml:space="preserve" x="-166.581" y="317.03" transform="rotate(330)" fill="url(#L)" class="B C"><tspan x="-166.581" y="317.03" font-weight="normal" class="E">irisctf{ponies_who_eat_rainbows_and_poop_butterflies}</tspan></text><text xml:space="preserve" x="-183.515" y="346.36" transform="rotate(330)" fill="url(#M)" class="B C"><tspan x="-183.515" y="346.36" font-weight="normal" class="E">irisctf{ponies_who_eat_rainbows_and_poop_butterflies}</tspan></text></svg>